<?xml version="1.0" encoding="UTF-8" standalone="no"?><!DOCTYPE svg PUBLIC "-//W3C//DTD SVG 1.1//EN" "http://www.w3.org/Graphics/SVG/1.1/DTD/svg11.dtd"><svg width="100%" height="100%" viewBox="0 0 2050 1763" version="1.1" xmlns="http://www.w3.org/2000/svg" xmlns:xlink="http://www.w3.org/1999/xlink" xml:space="preserve" xmlns:serif="http://www.serif.com/" style="fill-rule:evenodd;clip-rule:evenodd;"><g><path d="M377.92,753.307c-0,-69.125 56.037,-125.157 125.157,-125.157l1400.8,-0c69.121,-0 125.158,56.032 125.158,125.157l-0,827.964c-0,69.121 -56.037,125.157 -125.158,125.157l-1400.8,0c-69.12,0 -125.157,-56.036 -125.157,-125.157l-0,-827.964Z" style="fill:#b8b8b8;fill-rule:nonzero;"/><rect x="522.332" y="815.886" width="1506.7" height="43.324" style="fill:#d9d9d9;"/><rect x="498.263" y="1552.39" width="1530.77" height="43.324" style="fill:#d9d9d9;"/><path d="M734.137,609.463l-0,1072.33c-0,32.195 -26.139,58.334 -58.334,58.334l-239.55,-0c-32.195,-0 -58.333,-26.139 -58.333,-58.334l-0,-1072.33c-0,-32.195 26.138,-58.333 58.333,-58.333l239.55,-0c32.195,-0 58.334,26.138 58.334,58.333Z" style="fill:#afaeae;"/><path d="M1615.05,614.703l-0,31.707c-0,56.341 -45.742,102.083 -102.084,102.083l-397.551,0c-56.341,0 -102.083,-45.742 -102.083,-102.083l-0,-31.707c-0,-56.341 45.742,-102.083 102.083,-102.083l397.551,-0c56.342,-0 102.084,45.742 102.084,102.083Z" style="fill:#b8b8b8;"/><circle cx="1311.79" cy="1181.73" r="445.271" style="fill:#d5d5d5;stroke:#767676;stroke-width:24.07px;"/><path d="M1444.16,1179.32c-0,-106.812 -15.062,-203.409 -39.343,-273.218c-12.145,-34.919 -26.552,-63.002 -42.428,-82.31c-15.895,-19.323 -33.008,-29.571 -50.607,-29.571c-17.599,-0 -34.712,10.248 -50.607,29.571c-15.876,19.308 -30.283,47.391 -42.428,82.31c-24.281,69.809 -39.343,166.406 -39.343,273.218c0,106.813 15.062,203.405 39.343,273.219c12.145,34.914 26.552,62.997 42.428,82.305c15.895,19.323 33.008,29.576 50.607,29.576c17.599,-0 34.712,-10.253 50.607,-29.576c15.876,-19.308 30.283,-47.391 42.428,-82.305c24.281,-69.814 39.343,-166.406 39.343,-273.219Z" style="fill:#919191;fill-rule:nonzero;stroke:#939393;stroke-width:4.81px;"/><path d="M1913.5,730.817l-0,35.353c-0,11.498 -9.335,20.833 -20.833,20.833l-126.815,0c-11.498,0 -20.833,-9.335 -20.833,-20.833l-0,-35.353c-0,-11.498 9.335,-20.834 20.833,-20.834l126.815,0c11.498,0 20.833,9.336 20.833,20.834Z" style="fill:#fff;"/><path d="M1624.18,325.409c60.869,105.421 -250.739,346.012 -693.863,601.848c-443.124,255.836 -849.962,430.045 -910.828,324.619c-60.867,-105.426 288.29,-379.53 731.415,-635.366c443.124,-255.841 812.411,-396.527 873.276,-291.101Z" style="fill:#696969;fill-rule:nonzero;"/><path d="M1624.18,325.409c60.869,105.421 -250.739,346.012 -693.863,601.848c-443.124,255.836 -849.962,430.045 -910.828,324.619c-60.867,-105.426 288.29,-379.53 731.415,-635.366c443.124,-255.841 812.411,-396.527 873.276,-291.101Z" style="fill:#696969;fill-rule:nonzero;"/><path d="M133.882,491.324c-12.972,-58.155 35.266,-111.746 94.46,-104.944l862.31,99.086l-812.516,652.599l-144.254,-646.741Z" style="fill:#696969;fill-rule:nonzero;"/><path d="M908.332,44.193c-43.878,-40.311 -114.409,-25.331 -138.116,29.334l-345.343,796.326l971.423,-377.364l-487.964,-448.296Z" style="fill:#696969;fill-rule:nonzero;"/><path d="M1332.36,422.863c7.577,56.33 -200.979,203.106 -485.582,367.423c-284.155,164.058 -541.392,286.288 -589.264,253.43c-19.775,22.6 -27.824,40.002 -21.633,50.727c27.732,48.036 311.964,-88.424 628.987,-271.457c317.024,-183.033 546.784,-343.331 519.052,-391.362c-6.248,-10.817 -24.069,-13.377 -51.56,-8.761Z" style="fill:#b3b3b3;"/></g></svg>