<svg width="492" height="423" viewBox="0 0 492 423" fill="none" xmlns="http://www.w3.org/2000/svg">
<path d="M149 218C149 203.64 160.641 192 175 192H466C480.359 192 492 203.64 492 218V390C492 404.359 480.359 416 466 416H175C160.641 416 149 404.359 149 390V218Z" fill="#B8B8B8"/>
<rect x="179" y="231" width="313" height="9" fill="#D9D9D9"/>
<rect x="174" y="384" width="318" height="9" fill="#D9D9D9"/>
<rect x="149" y="176" width="74" height="247" rx="14" fill="#AFAEAE"/>
<rect x="281" y="168" width="125" height="49" rx="24.5" fill="#B8B8B8"/>
<circle cx="343" cy="307" r="92.5" fill="#D5D5D5" stroke="#767676" stroke-width="5"/>
<path d="M370.5 306.5C370.5 284.311 367.371 264.244 362.327 249.742C359.804 242.488 356.811 236.654 353.513 232.643C350.211 228.629 346.656 226.5 343 226.5C339.344 226.5 335.789 228.629 332.487 232.643C329.189 236.654 326.196 242.488 323.673 249.742C318.629 264.244 315.5 284.311 315.5 306.5C315.5 328.689 318.629 348.755 323.673 363.258C326.196 370.511 329.189 376.345 332.487 380.356C335.789 384.37 339.344 386.5 343 386.5C346.656 386.5 350.211 384.37 353.513 380.356C356.811 376.345 359.804 370.511 362.327 363.258C367.371 348.755 370.5 328.689 370.5 306.5Z" fill="#919191" stroke="#939393"/>
<rect x="433" y="209" width="35" height="16" rx="5" fill="white"/>
<path d="M407.897 129.109C420.542 151.009 355.809 200.989 263.755 254.136C171.701 307.283 87.1852 343.473 74.5409 321.572C61.8965 299.671 134.43 242.729 226.484 189.582C318.538 136.434 395.253 107.208 407.897 129.109Z" fill="#696969"/>
<path d="M407.897 129.109C420.542 151.009 355.809 200.989 263.755 254.136C171.701 307.283 87.1852 343.473 74.5409 321.572C61.8965 299.671 134.43 242.729 226.484 189.582C318.538 136.434 395.253 107.208 407.897 129.109Z" fill="#696969"/>
<path d="M98.3039 163.576C95.6092 151.495 105.63 140.362 117.927 141.775L297.062 162.359L128.271 297.929L98.3039 163.576Z" fill="#696969"/>
<path d="M259.187 70.6897C250.072 62.3156 235.42 65.4274 230.495 76.7834L158.754 242.211L360.556 163.818L259.187 70.6897Z" fill="#696969"/>
<path fill-rule="evenodd" clip-rule="evenodd" d="M347.274 149.354C348.848 161.056 305.523 191.547 246.4 225.682C187.37 259.763 133.932 285.155 123.987 278.329C119.879 283.024 118.207 286.639 119.493 288.867C125.254 298.846 184.3 270.498 250.158 232.475C316.016 194.452 363.746 161.152 357.985 151.174C356.687 148.927 352.985 148.395 347.274 149.354Z" fill="#B3B3B3"/>
</svg>
